FILE "game.bin" BINARY
  TRACK 01 MODE2/2352
    INDEX 01 00:00:00
  TRACK 02 AUDIO
    PREGAP 00:02:00
    INDEX 01 00:17:48
  TRACK 03 AUDIO
    INDEX 00 00:31:09
    INDEX 01 00:33:09
